<svg width="10" height="10" viewBox="0 0 10 10" fill="none" xmlns="http://www.w3.org/2000/svg">
<path fill-rule="evenodd" clip-rule="evenodd" d="M9.6771 0.322887C10.1076 0.753403 10.1076 1.45141 9.67711 1.88192L6.55903 5L9.67711 8.11807C10.1076 8.54858 10.1076 9.24659 9.67711 9.67711C9.24659 10.1076 8.54859 10.1076 8.11807 9.67711L5 6.55903L1.88192 9.67711C1.45141 10.1076 0.753404 10.1076 0.322888 9.67711C-0.107628 9.24659 -0.107628 8.54859 0.322887 8.11807L3.44096 5L0.322887 1.88192C-0.107629 1.45141 -0.107629 0.753404 0.322887 0.322888C0.753403 -0.107628 1.45141 -0.107628 1.88192 0.322888L5 3.44096L8.11807 0.322887C8.54858 -0.107629 9.24659 -0.107629 9.6771 0.322887Z" fill="black"/>
</svg>
