<svg width="13" height="13" viewBox="0 0 13 13" fill="none" xmlns="http://www.w3.org/2000/svg">
<path fill-rule="evenodd" clip-rule="evenodd" d="M7.78261 0.628608C8.62075 -0.209535 9.97965 -0.209537 10.8178 0.628608L12.3713 2.18215C13.2095 3.0203 13.2095 4.37919 12.3713 5.21734L4.79827 12.7904C4.6641 12.9246 4.48214 12.9999 4.2924 12.9999H0.7154C0.320296 12.9999 0 12.6797 0 12.2845V8.70755C0 8.51781 0.0753723 8.33585 0.209536 8.20168L7.78261 0.628608ZM9.80607 1.64034C9.52669 1.36096 9.07372 1.36095 8.79434 1.64034L8.16573 2.26894L10.731 4.83422L11.3596 4.20561C11.639 3.92623 11.639 3.47326 11.3596 3.19388L9.80607 1.64034ZM9.71928 5.84595L7.154 3.28067L1.4308 9.00387V11.5691H3.99607L9.71928 5.84595Z" fill="currentColor"/>
</svg>
