<svg width="25" height="25" viewBox="0 0 25 25" fill="none" xmlns="http://www.w3.org/2000/svg">
<path d="M12.5 5.76923C8.78906 5.76923 5.76923 8.78906 5.76923 12.5C5.76923 16.2109 8.78906 19.2308 12.5 19.2308C16.2109 19.2308 19.2308 16.2109 19.2308 12.5C19.2308 8.78906 16.2109 5.76923 12.5 5.76923ZM12.5 17.3077C9.84447 17.3077 7.69231 15.1555 7.69231 12.5C7.69231 9.84447 9.84447 7.69231 12.5 7.69231C15.1555 7.69231 17.3077 9.84447 17.3077 12.5C17.3077 15.1555 15.1555 17.3077 12.5 17.3077ZM12.5 3.84615C13.0308 3.84615 13.4615 3.41544 13.4615 2.88462V0.961538C13.4615 0.430709 13.0308 0 12.5 0C11.9692 0 11.5385 0.430709 11.5385 0.961538V2.88462C11.5385 3.41544 11.9692 3.84615 12.5 3.84615ZM12.5 21.1538C11.9692 21.1538 11.5385 21.5846 11.5385 22.1154V24.0385C11.5385 24.5693 11.9692 25 12.5 25C13.0308 25 13.4615 24.5693 13.4615 24.0385V22.1154C13.4615 21.5846 13.0308 21.1538 12.5 21.1538ZM19.9782 6.38023L21.3379 5.02055C21.7135 4.64495 21.7135 4.03648 21.3379 3.66088C20.9623 3.28528 20.3538 3.28528 19.9782 3.66088L18.6186 5.02055C18.243 5.39615 18.243 6.00463 18.6186 6.38023C18.9942 6.75583 19.6026 6.75583 19.9782 6.38023ZM5.02175 18.6198L3.66208 19.9795C3.28648 20.355 3.28648 20.9635 3.66208 21.3391C4.03768 21.7147 4.64615 21.7147 5.02175 21.3391L6.38143 19.9795C6.75703 19.6026 6.75703 18.9954 6.38143 18.6198C6.00589 18.2442 5.39736 18.2429 5.02175 18.6198ZM3.84615 12.5C3.84615 11.9692 3.41544 11.5385 2.88462 11.5385H0.961538C0.430709 11.5385 0 11.9692 0 12.5C0 13.0308 0.430709 13.4615 0.961538 13.4615H2.88462C3.41544 13.4615 3.84615 13.0308 3.84615 12.5ZM24.0385 11.5385H22.1154C21.5846 11.5385 21.1538 11.9692 21.1538 12.5C21.1538 13.0308 21.5846 13.4615 22.1154 13.4615H24.0385C24.5693 13.4615 25 13.0308 25 12.5C25 11.9692 24.5693 11.5385 24.0385 11.5385ZM5.02049 6.38023C5.39615 6.75583 6.00463 6.75583 6.38017 6.38023C6.75583 6.00463 6.75583 5.39615 6.38017 5.02055L5.02049 3.66088C4.64489 3.28528 4.03648 3.28528 3.66082 3.66088C3.28522 4.03648 3.28522 4.64495 3.66082 5.02055L5.02049 6.38023ZM19.9795 18.6185C19.6026 18.2429 18.9954 18.2429 18.6198 18.6185C18.2442 18.9941 18.243 19.6026 18.6198 19.9782L19.9795 21.3379C20.355 21.7135 20.9635 21.7135 21.3391 21.3379C21.7147 20.9623 21.7147 20.3538 21.3391 19.9782L19.9795 18.6185Z" fill="#98989A"/>
</svg>
