<svg width="30" height="30" viewBox="0 0 30 30" fill="none" xmlns="http://www.w3.org/2000/svg">
<path d="M18.1413 21.5408C12.8068 21.5408 8.48305 17.2166 8.48305 11.8809C8.48305 8.20251 10.5625 5.04331 13.5874 3.41223C7.85152 4.13838 3.41211 9.02587 3.41211 14.9597C3.41211 21.3934 8.62836 26.6118 15.0635 26.6118C20.9967 26.6118 25.8839 22.1708 26.6111 16.4353C24.9795 19.4619 21.819 21.5408 18.1413 21.5408Z" fill="#CACACA"/>
<path d="M19.3316 17.7266L21.3754 16.6515L23.4193 17.7266L23.0287 15.4507L24.6814 13.8397L22.3971 13.5077L21.3754 11.4374L20.3532 13.5077L18.0696 13.8397L19.7222 15.4507L19.3316 17.7266Z" fill="#CACACA"/>
</svg>
